<svg width="205.03mm" height="177.02mm" viewBox="0 0 205.03 177.02" xmlns="http://www.w3.org/2000/svg" version="1.1" preserveAspectRatio="xMidYMid meet"><g id="svgGroup" stroke-linecap="round" fill-rule="evenodd" font-size="9pt" stroke="#000" stroke-width="0.25mm" fill="none" style="stroke:#000;stroke-width:0.25mm;fill:none"><path d="M 5.697 177.017 L 5.697 174.02 L 12.062 174.02 L 12.062 177.017 L 12.065 177.02 L 18.445 177.02 L 18.447 177.017 L 18.447 174.02 L 24.813 174.02 L 24.813 177.017 L 24.815 177.02 L 31.195 177.02 L 31.197 177.017 L 31.197 174.02 L 37.563 174.02 L 37.563 177.017 L 37.565 177.02 L 43.945 177.02 L 43.948 177.017 L 43.948 174.02 L 50.313 174.02 L 50.313 177.017 L 50.315 177.02 L 56.007 177.02 L 56.01 177.017 L 56.01 168.575 L 56.007 168.573 L 53.01 168.573 L 53.01 162.208 L 56.007 162.208 L 56.01 162.205 L 56.01 155.825 L 56.007 155.823 L 53.01 155.823 L 53.01 149.458 L 56.007 149.458 L 56.01 149.455 L 56.01 143.075 L 56.007 143.073 L 53.01 143.073 L 53.01 136.708 L 56.007 136.708 L 56.01 136.705 L 56.01 130.325 L 56.007 130.323 L 53.01 130.323 L 53.01 123.958 L 56.007 123.958 L 56.01 123.955 L 56.01 117.575 L 56.007 117.573 L 53.01 117.573 L 53.01 111.208 L 56.007 111.208 L 56.01 111.205 L 56.01 104.825 L 56.007 104.823 L 53.01 104.823 L 53.01 98.458 L 56.007 98.458 L 56.01 98.455 L 56.01 90.013 L 56.007 90.01 L 0.003 90.01 L 0 90.013 L 0 98.455 L 0.003 98.458 L 3 98.458 L 3 104.823 L 0.003 104.823 L 0 104.825 L 0 111.205 L 0.003 111.208 L 3 111.208 L 3 117.573 L 0.003 117.573 L 0 117.575 L 0 123.955 L 0.003 123.958 L 3 123.958 L 3 130.323 L 0.003 130.323 L 0 130.325 L 0 136.705 L 0.003 136.708 L 3 136.708 L 3 143.073 L 0.003 143.073 L 0 143.075 L 0 149.455 L 0.003 149.458 L 3 149.458 L 3 155.823 L 0.003 155.823 L 0 155.825 L 0 162.205 L 0.003 162.208 L 3 162.208 L 3 168.573 L 0.003 168.573 L 0 168.575 L 0 177.017 L 0.003 177.02 L 5.695 177.02 L 5.697 177.017 Z" id="front_outsideCutPath" stroke="#FF0000" stroke-width="0.1" style="stroke:#FF0000;stroke-width:0.1" vector-effect="non-scaling-stroke"/><path d="M 67.458 177.017 L 67.458 174.02 L 73.823 174.02 L 73.823 177.017 L 73.825 177.02 L 80.205 177.02 L 80.208 177.017 L 80.208 174.02 L 86.573 174.02 L 86.573 177.017 L 86.575 177.02 L 92.955 177.02 L 92.958 177.017 L 92.958 174.02 L 99.323 174.02 L 99.323 177.017 L 99.325 177.02 L 105.705 177.02 L 105.708 177.017 L 105.708 174.02 L 112.073 174.02 L 112.073 177.017 L 112.075 177.02 L 118.455 177.02 L 118.458 177.017 L 118.458 174.02 L 124.823 174.02 L 124.823 177.017 L 124.825 177.02 L 131.205 177.02 L 131.208 177.017 L 131.208 174.02 L 137.573 174.02 L 137.573 177.017 L 137.575 177.02 L 143.017 177.02 L 143.02 177.017 L 143.02 168.583 L 146.017 168.583 L 146.02 168.58 L 146.02 162.2 L 146.017 162.198 L 143.02 162.198 L 143.02 155.833 L 146.017 155.833 L 146.02 155.83 L 146.02 149.45 L 146.017 149.448 L 143.02 149.448 L 143.02 143.083 L 146.017 143.083 L 146.02 143.08 L 146.02 136.7 L 146.017 136.698 L 143.02 136.698 L 143.02 130.333 L 146.017 130.333 L 146.02 130.33 L 146.02 123.95 L 146.017 123.948 L 143.02 123.948 L 143.02 117.583 L 146.017 117.583 L 146.02 117.58 L 146.02 111.2 L 146.017 111.198 L 143.02 111.198 L 143.02 104.833 L 146.017 104.833 L 146.02 104.83 L 146.02 98.45 L 146.017 98.448 L 143.02 98.448 L 143.02 90.013 L 143.017 90.01 L 62.013 90.01 L 62.01 90.013 L 62.01 98.448 L 59.013 98.448 L 59.01 98.45 L 59.01 104.83 L 59.013 104.833 L 62.01 104.833 L 62.01 111.198 L 59.013 111.198 L 59.01 111.2 L 59.01 117.58 L 59.013 117.583 L 62.01 117.583 L 62.01 123.948 L 59.013 123.948 L 59.01 123.95 L 59.01 130.33 L 59.013 130.333 L 62.01 130.333 L 62.01 136.698 L 59.013 136.698 L 59.01 136.7 L 59.01 143.08 L 59.013 143.083 L 62.01 143.083 L 62.01 149.448 L 59.013 149.448 L 59.01 149.45 L 59.01 155.83 L 59.013 155.833 L 62.01 155.833 L 62.01 162.198 L 59.013 162.198 L 59.01 162.2 L 59.01 168.58 L 59.013 168.583 L 62.01 168.583 L 62.01 177.017 L 62.013 177.02 L 67.455 177.02 L 67.458 177.017 Z" id="left_outsideCutPath" stroke="#FF0000" stroke-width="0.1" style="stroke:#FF0000;stroke-width:0.1" vector-effect="non-scaling-stroke"/><path d="M 5.697 87.007 L 5.697 84.01 L 12.062 84.01 L 12.062 87.007 L 12.065 87.01 L 18.445 87.01 L 18.447 87.007 L 18.447 84.01 L 24.813 84.01 L 24.813 87.007 L 24.815 87.01 L 31.195 87.01 L 31.197 87.007 L 31.197 84.01 L 37.563 84.01 L 37.563 87.007 L 37.565 87.01 L 43.945 87.01 L 43.948 87.007 L 43.948 84.01 L 50.313 84.01 L 50.313 87.007 L 50.315 87.01 L 56.007 87.01 L 56.01 87.007 L 56.01 78.565 L 56.007 78.563 L 53.01 78.563 L 53.01 72.197 L 56.007 72.197 L 56.01 72.195 L 56.01 65.815 L 56.007 65.813 L 53.01 65.813 L 53.01 59.447 L 56.007 59.447 L 56.01 59.445 L 56.01 53.065 L 56.007 53.063 L 53.01 53.063 L 53.01 46.697 L 56.007 46.697 L 56.01 46.695 L 56.01 40.315 L 56.007 40.313 L 53.01 40.313 L 53.01 33.947 L 56.007 33.947 L 56.01 33.945 L 56.01 27.565 L 56.007 27.563 L 53.01 27.563 L 53.01 21.197 L 56.007 21.197 L 56.01 21.195 L 56.01 14.815 L 56.007 14.813 L 53.01 14.813 L 53.01 8.447 L 56.007 8.447 L 56.01 8.445 L 56.01 0.003 L 56.007 0 L 0.003 0 L 0 0.003 L 0 8.445 L 0.003 8.447 L 3 8.447 L 3 14.813 L 0.003 14.813 L 0 14.815 L 0 21.195 L 0.003 21.197 L 3 21.197 L 3 27.563 L 0.003 27.563 L 0 27.565 L 0 33.945 L 0.003 33.947 L 3 33.947 L 3 40.313 L 0.003 40.313 L 0 40.315 L 0 46.695 L 0.003 46.697 L 3 46.697 L 3 53.063 L 0.003 53.063 L 0 53.065 L 0 59.445 L 0.003 59.447 L 3 59.447 L 3 65.813 L 0.003 65.813 L 0 65.815 L 0 72.195 L 0.003 72.197 L 3 72.197 L 3 78.563 L 0.003 78.563 L 0 78.565 L 0 87.007 L 0.003 87.01 L 5.695 87.01 L 5.697 87.007 Z" id="back_outsideCutPath" stroke="#FF0000" stroke-width="0.1" style="stroke:#FF0000;stroke-width:0.1" vector-effect="non-scaling-stroke"/><path d="M 67.458 87.007 L 67.458 84.01 L 73.823 84.01 L 73.823 87.007 L 73.825 87.01 L 80.205 87.01 L 80.208 87.007 L 80.208 84.01 L 86.573 84.01 L 86.573 87.007 L 86.575 87.01 L 92.955 87.01 L 92.958 87.007 L 92.958 84.01 L 99.323 84.01 L 99.323 87.007 L 99.325 87.01 L 105.705 87.01 L 105.708 87.007 L 105.708 84.01 L 112.073 84.01 L 112.073 87.007 L 112.075 87.01 L 118.455 87.01 L 118.458 87.007 L 118.458 84.01 L 124.823 84.01 L 124.823 87.007 L 124.825 87.01 L 131.205 87.01 L 131.208 87.007 L 131.208 84.01 L 137.573 84.01 L 137.573 87.007 L 137.575 87.01 L 143.017 87.01 L 143.02 87.007 L 143.02 78.572 L 146.017 78.572 L 146.02 78.57 L 146.02 72.19 L 146.017 72.188 L 143.02 72.188 L 143.02 65.822 L 146.017 65.822 L 146.02 65.82 L 146.02 59.44 L 146.017 59.438 L 143.02 59.438 L 143.02 53.072 L 146.017 53.072 L 146.02 53.07 L 146.02 46.69 L 146.017 46.688 L 143.02 46.688 L 143.02 40.322 L 146.017 40.322 L 146.02 40.32 L 146.02 33.94 L 146.017 33.938 L 143.02 33.938 L 143.02 27.572 L 146.017 27.572 L 146.02 27.57 L 146.02 21.19 L 146.017 21.188 L 143.02 21.188 L 143.02 14.822 L 146.017 14.822 L 146.02 14.82 L 146.02 8.44 L 146.017 8.438 L 143.02 8.438 L 143.02 0.003 L 143.017 0 L 62.013 0 L 62.01 0.003 L 62.01 8.438 L 59.013 8.438 L 59.01 8.44 L 59.01 14.82 L 59.013 14.822 L 62.01 14.822 L 62.01 21.188 L 59.013 21.188 L 59.01 21.19 L 59.01 27.57 L 59.013 27.572 L 62.01 27.572 L 62.01 33.938 L 59.013 33.938 L 59.01 33.94 L 59.01 40.32 L 59.013 40.322 L 62.01 40.322 L 62.01 46.688 L 59.013 46.688 L 59.01 46.69 L 59.01 53.07 L 59.013 53.072 L 62.01 53.072 L 62.01 59.438 L 59.013 59.438 L 59.01 59.44 L 59.01 65.82 L 59.013 65.822 L 62.01 65.822 L 62.01 72.188 L 59.013 72.188 L 59.01 72.19 L 59.01 78.57 L 59.013 78.572 L 62.01 78.572 L 62.01 87.007 L 62.013 87.01 L 67.455 87.01 L 67.458 87.007 Z" id="right_outsideCutPath" stroke="#FF0000" stroke-width="0.1" style="stroke:#FF0000;stroke-width:0.1" vector-effect="non-scaling-stroke"/><path d="M 161.093 177.017 L 161.093 174.02 L 167.458 174.02 L 167.458 177.017 L 167.46 177.02 L 173.84 177.02 L 173.843 177.017 L 173.843 174.02 L 180.208 174.02 L 180.208 177.017 L 180.21 177.02 L 186.59 177.02 L 186.593 177.017 L 186.593 174.02 L 192.958 174.02 L 192.958 177.017 L 192.96 177.02 L 199.34 177.02 L 199.343 177.017 L 199.343 174.02 L 202.027 174.02 L 202.03 174.017 L 202.03 168.583 L 205.027 168.583 L 205.03 168.58 L 205.03 162.2 L 205.027 162.198 L 202.03 162.198 L 202.03 155.833 L 205.027 155.833 L 205.03 155.83 L 205.03 149.45 L 205.027 149.448 L 202.03 149.448 L 202.03 143.083 L 205.027 143.083 L 205.03 143.08 L 205.03 136.7 L 205.027 136.698 L 202.03 136.698 L 202.03 130.333 L 205.027 130.333 L 205.03 130.33 L 205.03 123.95 L 205.027 123.948 L 202.03 123.948 L 202.03 117.583 L 205.027 117.583 L 205.03 117.58 L 205.03 111.2 L 205.027 111.198 L 202.03 111.198 L 202.03 104.833 L 205.027 104.833 L 205.03 104.83 L 205.03 98.45 L 205.027 98.448 L 202.03 98.448 L 202.03 93.013 L 202.027 93.01 L 199.343 93.01 L 199.343 90.013 L 199.34 90.01 L 192.96 90.01 L 192.958 90.013 L 192.958 93.01 L 186.593 93.01 L 186.593 90.013 L 186.59 90.01 L 180.21 90.01 L 180.208 90.013 L 180.208 93.01 L 173.843 93.01 L 173.843 90.013 L 173.84 90.01 L 167.46 90.01 L 167.458 90.013 L 167.458 93.01 L 161.093 93.01 L 161.093 90.013 L 161.09 90.01 L 154.71 90.01 L 154.708 90.013 L 154.708 93.01 L 152.023 93.01 L 152.02 93.013 L 152.02 98.448 L 149.023 98.448 L 149.02 98.45 L 149.02 104.83 L 149.023 104.833 L 152.02 104.833 L 152.02 111.198 L 149.023 111.198 L 149.02 111.2 L 149.02 117.58 L 149.023 117.583 L 152.02 117.583 L 152.02 123.948 L 149.023 123.948 L 149.02 123.95 L 149.02 130.33 L 149.023 130.333 L 152.02 130.333 L 152.02 136.698 L 149.023 136.698 L 149.02 136.7 L 149.02 143.08 L 149.023 143.083 L 152.02 143.083 L 152.02 149.448 L 149.023 149.448 L 149.02 149.45 L 149.02 155.83 L 149.023 155.833 L 152.02 155.833 L 152.02 162.198 L 149.023 162.198 L 149.02 162.2 L 149.02 168.58 L 149.023 168.583 L 152.02 168.583 L 152.02 174.017 L 152.023 174.02 L 154.708 174.02 L 154.708 177.017 L 154.71 177.02 L 161.09 177.02 L 161.093 177.017 Z" id="bottom_outsideCutPath" stroke="#FF0000" stroke-width="0.1" style="stroke:#FF0000;stroke-width:0.1" vector-effect="non-scaling-stroke"/></g></svg>