<svg width="142.03mm" height="83.02mm" viewBox="0 0 142.03 83.02" xmlns="http://www.w3.org/2000/svg" version="1.1" preserveAspectRatio="xMidYMid meet"><g id="svgGroup" stroke-linecap="round" fill-rule="evenodd" font-size="9pt" stroke="#000" stroke-width="0.25mm" fill="none" style="stroke:#000;stroke-width:0.25mm;fill:none"><path d="M 4.073 83.017 L 4.073 80.02 L 10.437 80.02 L 10.437 83.017 L 10.44 83.02 L 16.82 83.02 L 16.822 83.017 L 16.822 80.02 L 23.188 80.02 L 23.188 83.017 L 23.19 83.02 L 29.57 83.02 L 29.572 83.017 L 29.572 80.02 L 35.938 80.02 L 35.938 83.017 L 35.94 83.02 L 40.007 83.02 L 40.01 83.017 L 40.01 78.95 L 40.007 78.947 L 37.01 78.947 L 37.01 72.583 L 40.007 72.583 L 40.01 72.58 L 40.01 66.2 L 40.007 66.197 L 37.01 66.197 L 37.01 59.832 L 40.007 59.832 L 40.01 59.83 L 40.01 53.45 L 40.007 53.448 L 37.01 53.448 L 37.01 47.082 L 40.007 47.082 L 40.01 47.08 L 40.01 43.013 L 40.007 43.01 L 0.003 43.01 L 0 43.013 L 0 47.08 L 0.003 47.082 L 3 47.082 L 3 53.448 L 0.003 53.448 L 0 53.45 L 0 59.83 L 0.003 59.832 L 3 59.832 L 3 66.197 L 0.003 66.197 L 0 66.2 L 0 72.58 L 0.003 72.583 L 3 72.583 L 3 78.947 L 0.003 78.947 L 0 78.95 L 0 83.017 L 0.003 83.02 L 4.07 83.02 L 4.073 83.017 Z" id="front_outsideCutPath" stroke="#FF0000" stroke-width="0.1" style="stroke:#FF0000;stroke-width:0.1" vector-effect="non-scaling-stroke"/><path d="M 48.707 83.017 L 48.707 80.02 L 55.073 80.02 L 55.073 83.017 L 55.075 83.02 L 61.455 83.02 L 61.458 83.017 L 61.458 80.02 L 67.823 80.02 L 67.823 83.017 L 67.825 83.02 L 74.205 83.02 L 74.208 83.017 L 74.208 80.02 L 80.573 80.02 L 80.573 83.017 L 80.575 83.02 L 86.955 83.02 L 86.958 83.017 L 86.958 80.02 L 93.323 80.02 L 93.323 83.017 L 93.325 83.02 L 96.017 83.02 L 96.02 83.017 L 96.02 78.958 L 99.017 78.958 L 99.02 78.955 L 99.02 72.575 L 99.017 72.572 L 96.02 72.572 L 96.02 66.208 L 99.017 66.208 L 99.02 66.205 L 99.02 59.825 L 99.017 59.823 L 96.02 59.823 L 96.02 53.457 L 99.017 53.457 L 99.02 53.455 L 99.02 47.075 L 99.017 47.073 L 96.02 47.073 L 96.02 43.013 L 96.017 43.01 L 46.013 43.01 L 46.01 43.013 L 46.01 47.073 L 43.013 47.073 L 43.01 47.075 L 43.01 53.455 L 43.013 53.457 L 46.01 53.457 L 46.01 59.823 L 43.013 59.823 L 43.01 59.825 L 43.01 66.205 L 43.013 66.208 L 46.01 66.208 L 46.01 72.572 L 43.013 72.572 L 43.01 72.575 L 43.01 78.955 L 43.013 78.958 L 46.01 78.958 L 46.01 83.017 L 46.013 83.02 L 48.705 83.02 L 48.707 83.017 Z" id="left_outsideCutPath" stroke="#FF0000" stroke-width="0.1" style="stroke:#FF0000;stroke-width:0.1" vector-effect="non-scaling-stroke"/><path d="M 4.073 40.007 L 4.073 37.01 L 10.437 37.01 L 10.437 40.007 L 10.44 40.01 L 16.82 40.01 L 16.822 40.007 L 16.822 37.01 L 23.188 37.01 L 23.188 40.007 L 23.19 40.01 L 29.57 40.01 L 29.572 40.007 L 29.572 37.01 L 35.938 37.01 L 35.938 40.007 L 35.94 40.01 L 40.007 40.01 L 40.01 40.007 L 40.01 35.94 L 40.007 35.937 L 37.01 35.937 L 37.01 29.572 L 40.007 29.572 L 40.01 29.57 L 40.01 23.19 L 40.007 23.187 L 37.01 23.187 L 37.01 16.822 L 40.007 16.822 L 40.01 16.82 L 40.01 10.44 L 40.007 10.438 L 37.01 10.438 L 37.01 4.072 L 40.007 4.072 L 40.01 4.07 L 40.01 0.003 L 40.007 0 L 0.003 0 L 0 0.003 L 0 4.07 L 0.003 4.072 L 3 4.072 L 3 10.438 L 0.003 10.438 L 0 10.44 L 0 16.82 L 0.003 16.822 L 3 16.822 L 3 23.187 L 0.003 23.187 L 0 23.19 L 0 29.57 L 0.003 29.572 L 3 29.572 L 3 35.937 L 0.003 35.937 L 0 35.94 L 0 40.007 L 0.003 40.01 L 4.07 40.01 L 4.073 40.007 Z" id="back_outsideCutPath" stroke="#FF0000" stroke-width="0.1" style="stroke:#FF0000;stroke-width:0.1" vector-effect="non-scaling-stroke"/><path d="M 48.707 40.007 L 48.707 37.01 L 55.073 37.01 L 55.073 40.007 L 55.075 40.01 L 61.455 40.01 L 61.458 40.007 L 61.458 37.01 L 67.823 37.01 L 67.823 40.007 L 67.825 40.01 L 74.205 40.01 L 74.208 40.007 L 74.208 37.01 L 80.573 37.01 L 80.573 40.007 L 80.575 40.01 L 86.955 40.01 L 86.958 40.007 L 86.958 37.01 L 93.323 37.01 L 93.323 40.007 L 93.325 40.01 L 96.017 40.01 L 96.02 40.007 L 96.02 35.948 L 99.017 35.948 L 99.02 35.945 L 99.02 29.565 L 99.017 29.562 L 96.02 29.562 L 96.02 23.197 L 99.017 23.197 L 99.02 23.195 L 99.02 16.815 L 99.017 16.813 L 96.02 16.813 L 96.02 10.447 L 99.017 10.447 L 99.02 10.445 L 99.02 4.065 L 99.017 4.063 L 96.02 4.063 L 96.02 0.003 L 96.017 0 L 46.013 0 L 46.01 0.003 L 46.01 4.063 L 43.013 4.063 L 43.01 4.065 L 43.01 10.445 L 43.013 10.447 L 46.01 10.447 L 46.01 16.813 L 43.013 16.813 L 43.01 16.815 L 43.01 23.195 L 43.013 23.197 L 46.01 23.197 L 46.01 29.562 L 43.013 29.562 L 43.01 29.565 L 43.01 35.945 L 43.013 35.948 L 46.01 35.948 L 46.01 40.007 L 46.013 40.01 L 48.705 40.01 L 48.707 40.007 Z" id="right_outsideCutPath" stroke="#FF0000" stroke-width="0.1" style="stroke:#FF0000;stroke-width:0.1" vector-effect="non-scaling-stroke"/><path d="M 112.467 83.017 L 112.467 80.02 L 118.833 80.02 L 118.833 83.017 L 118.835 83.02 L 125.215 83.02 L 125.217 83.017 L 125.217 80.02 L 131.582 80.02 L 131.582 83.017 L 131.585 83.02 L 137.965 83.02 L 137.968 83.017 L 137.968 80.02 L 139.027 80.02 L 139.03 80.017 L 139.03 77.333 L 142.027 77.333 L 142.03 77.33 L 142.03 70.95 L 142.027 70.947 L 139.03 70.947 L 139.03 64.583 L 142.027 64.583 L 142.03 64.58 L 142.03 58.2 L 142.027 58.198 L 139.03 58.198 L 139.03 51.832 L 142.027 51.832 L 142.03 51.83 L 142.03 45.45 L 142.027 45.448 L 139.03 45.448 L 139.03 39.082 L 142.027 39.082 L 142.03 39.08 L 142.03 32.7 L 142.027 32.698 L 139.03 32.698 L 139.03 30.013 L 139.027 30.01 L 137.968 30.01 L 137.968 27.013 L 137.965 27.01 L 131.585 27.01 L 131.582 27.013 L 131.582 30.01 L 125.217 30.01 L 125.217 27.013 L 125.215 27.01 L 118.835 27.01 L 118.833 27.013 L 118.833 30.01 L 112.467 30.01 L 112.467 27.013 L 112.465 27.01 L 106.085 27.01 L 106.083 27.013 L 106.083 30.01 L 105.023 30.01 L 105.02 30.013 L 105.02 32.698 L 102.023 32.698 L 102.02 32.7 L 102.02 39.08 L 102.023 39.082 L 105.02 39.082 L 105.02 45.448 L 102.023 45.448 L 102.02 45.45 L 102.02 51.83 L 102.023 51.832 L 105.02 51.832 L 105.02 58.198 L 102.023 58.198 L 102.02 58.2 L 102.02 64.58 L 102.023 64.583 L 105.02 64.583 L 105.02 70.947 L 102.023 70.947 L 102.02 70.95 L 102.02 77.33 L 102.023 77.333 L 105.02 77.333 L 105.02 80.017 L 105.023 80.02 L 106.083 80.02 L 106.083 83.017 L 106.085 83.02 L 112.465 83.02 L 112.467 83.017 Z" id="bottom_outsideCutPath" stroke="#FF0000" stroke-width="0.1" style="stroke:#FF0000;stroke-width:0.1" vector-effect="non-scaling-stroke"/></g></svg>